<?xml version="1.0" encoding="UTF-8"?>
<svg width="586px" height="194px" viewBox="0 0 586 194" version="1.1" xmlns="http://www.w3.org/2000/svg" xmlns:xlink="http://www.w3.org/1999/xlink">
    <!-- Generator: Sketch 52.5 (67469) - http://www.bohemiancoding.com/sketch -->
    <title>eos-kickback-logo@3x</title>
    <desc>Created with Sketch.</desc>
    <g id="Welcome" stroke="none" stroke-width="1" fill="none" fill-rule="evenodd">
        <g id="Desktop" transform="translate(-213.000000, -54.000000)">
            <g id="eos-kickback-logo" transform="translate(219.000000, 60.000000)">
                <g id="Group" transform="translate(284.000000, 36.000000)" fill="#000000" font-family="Arial-BoldMT, Arial" font-size="90" font-weight="bold" letter-spacing="6.14999986">
                    <text id="K" transform="translate(40.500000, 50.000000) scale(-1, 1) translate(-40.500000, -50.000000) ">
                        <tspan x="0" y="81">K</tspan>
                    </text>
                    <text id="B">
                        <tspan x="81" y="81">B</tspan>
                    </text>
                </g>
                <text id="Kic" font-family="Arial-BoldMT, Arial" font-size="60" font-weight="bold" letter-spacing="4.0999999" fill="#000000">
                    <tspan x="195" y="116">Kic</tspan>
                </text>
                <text id="acks" font-family="Arial-BoldMT, Arial" font-size="60" font-weight="bold" letter-spacing="4.0999999" fill="#000000">
                    <tspan x="436" y="116">acks</tspan>
                </text>
                <circle id="Oval" stroke="#979797" stroke-width="11" cx="91" cy="91" r="91"></circle>
                <g id="Eosio_logo" transform="translate(47.000000, 17.000000)" fill="#000000" fill-rule="nonzero">
                    <path d="M47,0 L14.0124224,44.8854167 L0,110.910417 L47,139 L94,110.910417 L79.9875776,44.5958333 L47,0 Z M21.6024845,46.04375 L47,11.5833333 L72.3975155,46.04375 L47,121.625 L21.6024845,46.04375 Z M75.9006211,57.3375 L86.4099379,107.725 L51.9627329,128.285417 L75.9006211,57.3375 Z M7.59006211,107.725 L18.0993789,57.3375 L42.0372671,128.285417 L7.59006211,107.725 Z" id="Shape"></path>
                </g>
                <text id="BLOCK-PRODUCER" font-family="ArialMT, Arial" font-size="16" font-weight="normal" letter-spacing="17.5900002" fill="#000000">
                    <tspan x="201" y="143">BLOCK PRODUCE</tspan>
                    <tspan x="568.365314" y="143">R</tspan>
                </text>
            </g>
        </g>
    </g>
</svg>