<?xml version="1.0" encoding="UTF-8"?>
<svg width="1024px" height="1024px" viewBox="0 0 1024 1024" version="1.1" xmlns="http://www.w3.org/2000/svg" xmlns:xlink="http://www.w3.org/1999/xlink">
    <!-- Generator: Sketch 52.5 (67469) - http://www.bohemiancoding.com/sketch -->
    <title>landing-page</title>
    <desc>Created with Sketch.</desc>
    <defs>
        <rect id="path-1" x="0" y="0" width="426" height="45" rx="19.5"></rect>
        <filter x="-1.6%" y="-11.1%" width="103.3%" height="131.1%" filterUnits="objectBoundingBox" id="filter-2">
            <feOffset dx="0" dy="2" in="SourceAlpha" result="shadowOffsetOuter1"></feOffset>
            <feGaussianBlur stdDeviation="2" in="shadowOffsetOuter1" result="shadowBlurOuter1"></feGaussianBlur>
            <feComposite in="shadowBlurOuter1" in2="SourceAlpha" operator="out" result="shadowBlurOuter1"></feComposite>
            <feColorMatrix values="0 0 0 0 0   0 0 0 0 0   0 0 0 0 0  0 0 0 0.5 0" type="matrix" in="shadowBlurOuter1"></feColorMatrix>
        </filter>
        <radialGradient cx="50%" cy="50%" fx="50%" fy="50%" r="62.8314611%" id="radialGradient-3">
            <stop stop-color="#FFC442" offset="0%"></stop>
            <stop stop-color="#FF5100" offset="100%"></stop>
        </radialGradient>
        <path d="M75.2,13.6 L48.8099379,49.5083333 L37.6,102.328333 L75.2,124.8 L112.8,102.328333 L101.590062,49.2766667 L75.2,13.6 Z M54.8819876,50.435 L75.2,22.8666667 L95.5180124,50.435 L75.2,110.9 L54.8819876,50.435 Z M98.3204969,59.47 L106.72795,99.78 L79.1701863,116.228333 L98.3204969,59.47 Z M43.6720497,99.78 L52.0795031,59.47 L71.2298137,116.228333 L43.6720497,99.78 Z" id="path-4"></path>
        <filter x="-7.3%" y="-3.1%" width="114.6%" height="109.9%" filterUnits="objectBoundingBox" id="filter-5">
            <feOffset dx="0" dy="2" in="SourceAlpha" result="shadowOffsetOuter1"></feOffset>
            <feGaussianBlur stdDeviation="1.5" in="shadowOffsetOuter1" result="shadowBlurOuter1"></feGaussianBlur>
            <feColorMatrix values="0 0 0 0 0   0 0 0 0 0   0 0 0 0 0  0 0 0 0.5 0" type="matrix" in="shadowBlurOuter1"></feColorMatrix>
        </filter>
    </defs>
    <g id="landing-page" stroke="none" stroke-width="1" fill="none" fill-rule="evenodd">
        <g id="step-3" transform="translate(325.000000, 807.000000)" fill="#FFFFFF" font-family="ArialMT, Arial" font-size="16" font-weight="normal" letter-spacing="5">
            <text id="REVEIVE-DAILY-98%-KI">
                <tspan x="0" y="14">REVEIVE DAILY 98% KICKBACK</tspan>
                <tspan x="370.398438" y="14">!</tspan>
            </text>
        </g>
        <g id="step-3-oval" transform="translate(488.000000, 741.000000)">
            <circle id="Oval" fill="#FFBA3C" cx="24" cy="24" r="24"></circle>
            <text id="3" font-family="CourierNewPS-BoldMT, Courier New" font-size="28.8" font-weight="bold" fill="#FFFFFF">
                <tspan x="15.3585938" y="33">3</tspan>
            </text>
        </g>
        <g id="step-2" transform="translate(429.000000, 673.000000)" fill="#FFFFFF" font-family="ArialMT, Arial" font-size="16" font-weight="normal" letter-spacing="5">
            <text id="WAIT-FOR-24H">
                <tspan x="0" y="14">WAIT FOR 24</tspan>
                <tspan x="154.570312" y="14">H</tspan>
            </text>
        </g>
        <g id="step-2-oval" transform="translate(488.000000, 606.000000)">
            <circle id="Oval" fill="#FF841D" cx="24" cy="24" r="24"></circle>
            <text id="2" font-family="CourierNewPS-BoldMT, Courier New" font-size="28.8" font-weight="bold" fill="#FFFFFF">
                <tspan x="15.3585938" y="32">2</tspan>
            </text>
        </g>
        <g id="step-1" transform="translate(299.000000, 497.000000)">
            <g id="account" transform="translate(0.000000, 33.000000)">
                <g id="Rectangle" opacity="0.5">
                    <use fill="black" fill-opacity="1" filter="url(#filter-2)" xlink:href="#path-1"></use>
                    <rect stroke="#A70000" stroke-width="1" stroke-linejoin="square" fill="#000000" fill-rule="evenodd" x="0.5" y="0.5" width="425" height="44" rx="19.5"></rect>
                </g>
                <text id="eoskickbacks" font-family="Arial-BoldMT, Arial" font-size="33" font-weight="bold" letter-spacing="15.6750059" fill="#7ED321">
                    <tspan x="18" y="33">eoskickbacks</tspan>
                </text>
            </g>
            <text id="PROXY-VOTES-TO-ACCOU" font-family="ArialMT, Arial" font-size="16" font-weight="normal" letter-spacing="5" fill="#FFFFFF">
                <tspan x="49" y="14">PROXY VOTES TO ACCOUN</tspan>
                <tspan x="367.390625" y="14">T</tspan>
            </text>
        </g>
        <g id="step-1-oval" transform="translate(488.000000, 431.000000)">
            <circle id="Oval" fill="#FF7112" cx="24" cy="24" r="24"></circle>
            <text id="1" font-family="CourierNewPS-BoldMT, Courier New" font-size="28.8" font-weight="bold" fill="#FFFFFF">
                <tspan x="16.7585937" y="33">1</tspan>
            </text>
        </g>
        <g id="earn-daily-kickbacks-right" transform="translate(130.000000, 308.000000)" fill="#FFFFFF" font-family="Arial-BoldMT, Arial" font-size="16" font-weight="bold" letter-spacing="15">
            <text id="EARN-DAILY-KICKBACKS">
                <tspan x="0" y="14">EARN DAILY KICKBACKS RIGHT NOW!</tspan>
            </text>
        </g>
        <path d="M499.5,113.5 L608.029463,113.5 C610.199861,111.337078 613.193785,110 616.5,110 C619.806215,110 622.800139,111.337078 624.970537,113.5 L720,113.5 C727.731986,113.5 734,119.768014 734,127.5 C734,135.231986 727.731986,141.5 720,141.5 L628.5,141.5 L628.5,159.5 L674,159.5 C681.731986,159.5 688,165.768014 688,173.5 C688,181.231986 681.731986,187.5 674,187.5 L478.5,187.5 L478.5,200.5 L794,200.5 C801.731986,200.5 808,206.768014 808,214.5 C808,222.231986 801.731986,228.5 794,228.5 L477.981563,228.5 C476.483648,233.420096 471.90989,237 466.5,237 C461.09011,237 456.516352,233.420096 455.018437,228.5 L396,228.5 C388.268014,228.5 382,222.231986 382,214.5 C382,206.768014 388.268014,200.5 396,200.5 L454.5,200.5 L454.5,187.5 L384.970537,187.5 C382.800139,189.662922 379.806215,191 376.5,191 C373.193785,191 370.199861,189.662922 368.029463,187.5 L276,187.5 C268.268014,187.5 262,181.231986 262,173.5 C262,165.768014 268.268014,159.5 276,159.5 L364.5,159.5 L364.5,141.5 L322,141.5 C314.268014,141.5 308,135.231986 308,127.5 C308,119.768014 314.268014,113.5 322,113.5 L475.5,113.5 L475.5,95.5 L219,95.5 C211.268014,95.5 205,89.2319865 205,81.5 C205,73.7680135 211.268014,67.5 219,67.5 L479.029463,67.5 C481.199861,65.3370783 484.193785,64 487.5,64 C490.806215,64 493.800139,65.3370783 495.970537,67.5 L617,67.5 C624.731986,67.5 631,73.7680135 631,81.5 C631,89.2319865 624.731986,95.5 617,95.5 L499.5,95.5 L499.5,113.5 Z M388.5,159.5 L604.5,159.5 L604.5,141.5 L388.5,141.5 L388.5,159.5 Z" id="Combined-Shape" fill="#FFFFFF" opacity="0.024851192"></path>
        <g id="eos-kickback-logo" transform="translate(274.000000, 77.000000)">
            <g id="Group" transform="translate(235.200000, 28.800000)" fill="#FF7A18" font-family="Arial-BoldMT, Arial" font-size="72" font-weight="bold" letter-spacing="4.91999969">
                <text id="K" transform="translate(32.400000, 40.000000) scale(-1, 1) translate(-32.400000, -40.000000) ">
                    <tspan x="0" y="65">K</tspan>
                </text>
                <text id="B">
                    <tspan x="64.8" y="65">B</tspan>
                </text>
            </g>
            <text id="Kic" font-family="Arial-BoldMT, Arial" font-size="48" font-weight="bold" letter-spacing="3.27999992" fill="#FFFFFF">
                <tspan x="164" y="92.6">Kic</tspan>
            </text>
            <text id="BLOCK-PRODUCER" font-family="ArialMT, Arial" font-size="12.8" font-weight="normal" letter-spacing="14.0720001" fill="#FFFFFF">
                <tspan x="168.8" y="115.2">BLOCK PRODUCE</tspan>
                <tspan x="462.692252" y="115.2">R</tspan>
            </text>
            <text id="acks" font-family="Arial-BoldMT, Arial" font-size="48" font-weight="bold" letter-spacing="3.27999992" fill="#FFFFFF">
                <tspan x="356.8" y="92.6">acks</tspan>
            </text>
            <g id="Logo-in-Circle">
                <circle id="Oval" stroke="#FFFDFD" stroke-width="8.8" fill="url(#radialGradient-3)" cx="72.8" cy="72.8" r="72.8"></circle>
                <g id="Shape" fill-rule="nonzero">
                    <use fill="black" fill-opacity="1" filter="url(#filter-5)" xlink:href="#path-4"></use>
                    <use fill="#FFFFFF" xlink:href="#path-4"></use>
                </g>
            </g>
        </g>
    </g>
</svg>