<?xml version="1.0" encoding="UTF-8"?>
<svg width="158px" height="141px" viewBox="0 0 158 141" version="1.1" xmlns="http://www.w3.org/2000/svg" xmlns:xlink="http://www.w3.org/1999/xlink">
    <!-- Generator: Sketch 52.5 (67469) - http://www.bohemiancoding.com/sketch -->
    <title>logo-big</title>
    <desc>Created with Sketch.</desc>
    <defs>
        <filter x="-11.5%" y="-11.5%" width="143.3%" height="143.3%" filterUnits="objectBoundingBox" id="filter-1">
            <feOffset dx="0" dy="2" in="SourceAlpha" result="shadowOffsetOuter1"></feOffset>
            <feGaussianBlur stdDeviation="2" in="shadowOffsetOuter1" result="shadowBlurOuter1"></feGaussianBlur>
            <feColorMatrix values="0 0 0 0 0   0 0 0 0 0   0 0 0 0 0  0 0 0 0.5 0" type="matrix" in="shadowBlurOuter1" result="shadowMatrixOuter1"></feColorMatrix>
            <feMerge>
                <feMergeNode in="shadowMatrixOuter1"></feMergeNode>
                <feMergeNode in="SourceGraphic"></feMergeNode>
            </feMerge>
        </filter>
    </defs>
    <g id="logo-big" stroke="none" stroke-width="1" fill="none" fill-rule="evenodd">
        <g id="Logo" filter="url(#filter-1)" transform="translate(17.000000, 9.000000)" fill="#FFFFFF">
            <text id="K-Copy" font-family="HiraMaruProN-W4, Hiragino Maru Gothic ProN" font-size="54" font-weight="normal" letter-spacing="1.8">
                <tspan x="25.2" y="84">K</tspan>
            </text>
            <text id="B-Copy" transform="translate(79.800000, 63.000000) scale(-1, 1) translate(-79.800000, -63.000000) " font-family="HiraMaruProN-W4, Hiragino Maru Gothic ProN" font-size="54" font-weight="normal" letter-spacing="1.8">
                <tspan x="58.8" y="84">B</tspan>
            </text>
            <path d="M58.557983,124.2 C25.9091431,122.361587 0,95.2672233 0,62.113033 C0,30.2539388 23.9245098,3.99048986 54.7639111,0.355977038 L63,7.33467418 L53.8934955,15.0509019 C31.460007,18.9462955 14.4,38.5346025 14.4,62.113033 C14.4,87.5329029 34.2287831,108.315067 59.2423164,109.795112 L50.4,117.287484 L58.557983,124.2 Z M69.0242663,123.917231 L61.2,117.287484 L70.9002266,109.068177 C93.0403079,104.933106 109.8,85.4830113 109.8,62.113033 C109.8,36.8406177 90.2005935,16.1522598 65.3924495,14.4586561 L73.8,7.33467418 L65.1437957,-1.19015908e-13 C98.0268804,1.58928273 124.2,28.7903743 124.2,62.113033 C124.2,94.1137997 100.06224,120.469044 69.0242663,123.917231 Z" id="Combined-Shape"></path>
        </g>
    </g>
</svg>